<svg width="22" height="22" viewBox="0 0 22 22" fill="none" xmlns="http://www.w3.org/2000/svg">
<g clip-path="url(#clip0_210_10)">
<path d="M16.5 5.5932C17.6918 5.71043 18.494 5.97536 19.0928 6.57411C20.1667 7.64805 20.1667 9.37653 20.1667 12.8335C20.1667 16.2905 20.1667 18.0189 19.0928 19.0929C18.0188 20.1668 16.2903 20.1668 12.8334 20.1668H9.16671C5.70974 20.1668 3.98126 20.1668 2.90732 19.0929C1.83337 18.0189 1.83337 16.2905 1.83337 12.8335C1.83337 9.37653 1.83337 7.64805 2.90732 6.57411C3.50607 5.97536 4.30827 5.71043 5.50004 5.5932" stroke="#72F024" stroke-width="2"/>
<path d="M9.16663 5.5H12.8333" stroke="#72F024" stroke-width="2" stroke-linecap="round"/>
<path d="M10.0834 8.25H11.9167" stroke="#72F024" stroke-width="2" stroke-linecap="round"/>
<path d="M7.47899 10.8158L6.93926 10.366C6.23152 9.77624 5.87764 9.48135 5.68882 9.07821C5.5 8.67507 5.5 8.21443 5.5 7.29315V6.41665C5.5 4.25604 5.5 3.17574 6.17121 2.50453C6.84243 1.83331 7.92273 1.83331 10.0833 1.83331H11.9167C14.0773 1.83331 15.1576 1.83331 15.8288 2.50453C16.5 3.17574 16.5 4.25604 16.5 6.41665V7.29315C16.5 8.21443 16.5 8.67507 16.3112 9.07821C16.1224 9.48135 15.7685 9.77624 15.0607 10.366L14.521 10.8158C12.8374 12.2188 11.9956 12.9203 11 12.9203C10.0044 12.9203 9.16257 12.2188 7.47899 10.8158Z" stroke="#72F024" stroke-width="2" stroke-linecap="round"/>
<path d="M5.5 9.16669L7.47899 10.8158C9.16257 12.2188 10.0044 12.9203 11 12.9203C11.9956 12.9203 12.8374 12.2188 14.521 10.8158L16.5 9.16669" stroke="#72F024" stroke-width="2" stroke-linecap="round"/>
</g>
<defs>
<clipPath id="clip0_210_10">
<rect width="22" height="22" fill="white"/>
</clipPath>
</defs>
</svg>
