<svg width="35" height="36" viewBox="0 0 35 36" fill="none" xmlns="http://www.w3.org/2000/svg">
<path d="M17.5333 35.5H17.4564C7.83103 35.5 0 27.6667 0 18.0385V17.9615C0 8.33332 7.83103 0.5 17.4564 0.5H17.5333C27.1587 0.5 34.9897 8.33332 34.9897 17.9615V18.0385C34.9897 27.6667 27.1587 35.5 17.5333 35.5ZM17.4564 1.68471C8.48361 1.68471 1.18437 8.98609 1.18437 17.9615V18.0385C1.18437 27.0139 8.48361 34.3153 17.4564 34.3153H17.5333C26.5061 34.3153 33.8053 27.0139 33.8053 18.0385V17.9615C33.8053 8.98609 26.5061 1.68471 17.5333 1.68471H17.4564Z" fill="#505050"/>
<path d="M22.7256 7.97202H12.2653C9.37546 7.97202 7.02449 10.3237 7.02449 13.2144V22.7868C7.02449 25.6775 9.37546 28.0292 12.2653 28.0292H22.7256C25.6155 28.0292 27.9664 25.6775 27.9664 22.7868V13.2144C27.9664 10.3237 25.6155 7.97202 22.7256 7.97202ZM8.87329 13.2144C8.87329 11.3437 10.3952 9.82134 12.2653 9.82134H22.7256C24.5957 9.82134 26.1176 11.3437 26.1176 13.2144V22.7868C26.1176 24.6575 24.5957 26.1799 22.7256 26.1799H12.2653C10.3952 26.1799 8.87329 24.6575 8.87329 22.7868V13.2144Z" fill="#505050"/>
<path d="M17.4955 22.8757C20.1828 22.8757 22.3703 20.6887 22.3703 17.9994C22.3703 15.3101 20.184 13.1231 17.4955 13.1231C14.807 13.1231 12.6206 15.3101 12.6206 17.9994C12.6206 20.6887 14.807 22.8757 17.4955 22.8757ZM17.4955 14.9736C19.1643 14.9736 20.5215 16.3313 20.5215 18.0006C20.5215 19.6699 19.1643 21.0275 17.4955 21.0275C15.8267 21.0275 14.4694 19.6699 14.4694 18.0006C14.4694 16.3313 15.8267 14.9736 17.4955 14.9736Z" fill="#505050"/>
<path d="M22.8216 13.911C23.5452 13.911 24.135 13.3222 24.135 12.5972C24.135 11.8721 23.5464 11.2833 22.8216 11.2833C22.0968 11.2833 21.5081 11.8721 21.5081 12.5972C21.5081 13.3222 22.0968 13.911 22.8216 13.911Z" fill="#505050"/>
</svg>
