<svg width="22" height="22" viewBox="0 0 22 22" fill="none" xmlns="http://www.w3.org/2000/svg">
<path d="M17.0829 14.3649L18.6563 9.64472C20.0308 5.5212 20.718 3.45944 19.6297 2.37111C18.5414 1.28278 16.4796 1.97003 12.3561 3.34454L7.63587 4.91795C4.30779 6.02731 2.64376 6.58198 2.17088 7.39538C1.72103 8.16918 1.72103 9.12487 2.17088 9.89866C2.64375 10.7121 4.30779 11.2667 7.63587 12.3761C8.17025 12.5542 8.43744 12.6433 8.66077 12.7928C8.8772 12.9377 9.06313 13.1236 9.20802 13.3401C9.35752 13.5634 9.44659 13.8306 9.62471 14.3649C10.7341 17.693 11.2887 19.3571 12.1021 19.8299C12.8759 20.2798 13.8316 20.2798 14.6054 19.8299C15.4188 19.3571 15.9735 17.693 17.0829 14.3649Z" stroke="white" stroke-width="1.5"/>
<path d="M14.9044 8.15515C15.1989 7.86389 15.2016 7.38902 14.9103 7.09451C14.619 6.8 14.1442 6.79736 13.8497 7.08863L14.9044 8.15515ZM9.81791 13.1856L14.9044 8.15515L13.8497 7.08863L8.76314 12.1191L9.81791 13.1856Z" fill="white"/>
</svg>
