<svg width="36" height="36" viewBox="0 0 36 36" fill="none" xmlns="http://www.w3.org/2000/svg">
<path d="M18.5128 35.5H18.4358C8.81043 35.5 0.979416 27.6667 0.979416 18.0385V17.9615C0.979416 8.33332 8.81043 0.5 18.4358 0.5H18.5128C28.1381 0.5 35.9691 8.33332 35.9691 17.9615V18.0385C35.9691 27.6667 28.1381 35.5 18.5128 35.5ZM18.4358 1.68471C9.46301 1.68471 2.16378 8.98609 2.16378 17.9615V18.0385C2.16378 27.0139 9.46301 34.3153 18.4358 34.3153H18.5128C27.4855 34.3153 34.7848 27.0139 34.7848 18.0385V17.9615C34.7848 8.98609 27.4855 1.68471 18.5128 1.68471H18.4358Z" fill="#505050"/>
<path d="M7.97425 17.4225C8.02162 17.3988 8.06902 17.3762 8.11521 17.3549C8.91821 16.9829 9.73187 16.6346 10.5443 16.2863C10.5882 16.2863 10.6616 16.2354 10.703 16.2188C10.7658 16.1915 10.8286 16.1655 10.8914 16.1382C11.0122 16.0861 11.133 16.0351 11.2526 15.983C11.4942 15.8799 11.7346 15.7769 11.9762 15.6738C12.4583 15.4677 12.9403 15.2615 13.4223 15.0542C14.3864 14.6419 15.3517 14.2284 16.3158 13.8162C17.2798 13.4039 18.2451 12.9904 19.2092 12.5781C20.1732 12.1659 21.1385 11.7524 22.1025 11.3401C23.0666 10.9278 24.0319 10.5144 24.996 10.1021C25.2103 10.0097 25.4425 9.87226 25.6722 9.83198C25.8653 9.79763 26.0536 9.73129 26.2478 9.69457C26.6162 9.62467 27.0224 9.59623 27.3753 9.74906C27.4973 9.80237 27.6098 9.87699 27.7034 9.97058C28.1511 10.4137 28.0883 11.1411 27.9936 11.7643C27.3339 16.1074 26.6742 20.4518 26.0133 24.7949C25.9233 25.3908 25.8001 26.0448 25.3299 26.4215C24.932 26.7402 24.3659 26.7758 23.8744 26.6407C23.3828 26.5044 22.9494 26.2189 22.5242 25.9382C20.7607 24.77 18.996 23.6019 17.2325 22.4338C16.8132 22.1565 16.3466 21.794 16.3513 21.2905C16.3537 20.9872 16.5349 20.7171 16.7196 20.4766C18.2522 18.4768 20.4634 17.1026 22.1085 15.1952C22.3406 14.9263 22.523 14.4405 22.2044 14.2853C22.0149 14.1929 21.797 14.3185 21.6241 14.4381C19.4496 15.9486 17.2763 17.4603 15.1018 18.9709C14.3923 19.4637 13.6486 19.9707 12.7935 20.0916C12.0284 20.2006 11.2585 19.9873 10.5183 19.7694C9.89769 19.5869 9.27824 19.3997 8.66119 19.2066C8.33312 19.1047 7.99439 18.9945 7.74093 18.7635C7.48748 18.5325 7.34182 18.1439 7.4946 17.8359C7.59054 17.6428 7.77649 17.5208 7.97191 17.4213L7.97425 17.4225Z" fill="#505050"/>
</svg>
