<svg width="36" height="36" viewBox="0 0 36 36" fill="none" xmlns="http://www.w3.org/2000/svg">
<path d="M18.5231 35.5H18.4461C8.82073 35.5 0.9897 27.6667 0.9897 18.0385V17.9615C0.9897 8.33332 8.82073 0.5 18.4461 0.5H18.5231C28.1484 0.5 35.9794 8.33332 35.9794 17.9615V18.0385C35.9794 27.6667 28.1484 35.5 18.5231 35.5ZM18.4461 1.68471C9.47331 1.68471 2.17407 8.98609 2.17407 17.9615V18.0385C2.17407 27.0139 9.47331 34.3153 18.4461 34.3153H18.5231C27.4958 34.3153 34.795 27.0139 34.795 18.0385V17.9615C34.795 8.98609 27.4958 1.68471 18.5231 1.68471H18.4461Z" fill="#505050"/>
<path d="M21.7801 22.9456C17.4536 22.9456 13.9336 19.4234 13.9325 15.0957C13.9336 13.9986 14.8267 13.1065 15.921 13.1065C16.0335 13.1065 16.1448 13.116 16.2514 13.135C16.4859 13.1741 16.7086 13.2534 16.9135 13.3731C16.9431 13.3909 16.9632 13.4193 16.968 13.4525L17.4251 16.3349C17.4311 16.3692 17.4204 16.4024 17.3979 16.4273C17.1456 16.7069 16.8235 16.9083 16.4646 17.009L16.2917 17.0576L16.3568 17.2246C16.9467 18.7268 18.1476 19.9269 19.6506 20.5193L19.8176 20.5857L19.8661 20.4127C19.9668 20.0537 20.1681 19.7315 20.4476 19.4791C20.4678 19.4602 20.495 19.4507 20.5223 19.4507C20.5282 19.4507 20.5341 19.4507 20.5412 19.4519L23.4228 19.9092C23.4571 19.9151 23.4856 19.9341 23.5033 19.9637C23.6218 20.1686 23.7011 20.3925 23.7414 20.6271C23.7603 20.7314 23.7686 20.8415 23.7686 20.9565C23.7686 22.0523 22.8768 22.9444 21.7801 22.9456Z" fill="#505050"/>
<path d="M29.4524 17.0505C29.2191 14.4133 28.011 11.9669 26.0509 10.1625C24.0789 8.34756 21.5207 7.34766 18.8452 7.34766C12.9731 7.34766 8.19539 12.1268 8.19539 18.0006C8.19539 19.972 8.739 21.8924 9.76822 23.5652L7.47292 28.6476L14.8219 27.8645C16.0998 28.3882 17.4524 28.6535 18.844 28.6535C19.21 28.6535 19.5854 28.6346 19.9621 28.5955C20.2937 28.5599 20.6289 28.5078 20.9581 28.4415C25.8756 27.4475 29.4654 23.0818 29.4938 18.0575V18.0006C29.4938 17.6807 29.4796 17.3609 29.4512 17.0516L29.4524 17.0505ZM15.105 25.6337L11.0391 26.0673L12.253 23.3768L12.0102 23.0511C11.9925 23.0274 11.9747 23.0036 11.9546 22.9764C10.9005 21.5204 10.3438 19.8002 10.3438 18.0018C10.3438 13.3127 14.1575 9.4979 18.8452 9.4979C23.2368 9.4979 26.9593 12.9253 27.3182 17.3004C27.3371 17.535 27.3478 17.7708 27.3478 18.003C27.3478 18.0693 27.3466 18.1345 27.3454 18.2044C27.2554 22.127 24.5159 25.4584 20.6833 26.3066C20.3908 26.3718 20.0911 26.4216 19.7927 26.4535C19.4824 26.4891 19.1638 26.5069 18.8476 26.5069C17.7212 26.5069 16.6269 26.2889 15.5929 25.8576C15.4781 25.8114 15.3655 25.7617 15.2601 25.7107L15.1062 25.6361L15.105 25.6337Z" fill="#505050"/>
</svg>
